<svg xmlns="http://www.w3.org/2000/svg" viewBox="0 0 454.97 204.94"><defs><style>.a1ee0ad0-ca44-42d2-915b-a236866352f2{fill:#1d125c;}.f19e6882-60e5-4a3d-b34a-a90c1bacfe52{fill:#fbbfce;}.e93afa80-0bdf-458c-89f9-5776a2fbf663{fill:#fff968;}.ae0db855-dfa5-431f-bc3c-16fc94eacd36{fill:#00a3f5;}.aedf9ea4-c5ec-4632-b311-b12436d4b8b8{fill:#00a8c8;}.a2e937b6-93d2-4baf-b50d-a48086f73733{font-size:89.91px;fill:#0dd1ff;font-family:SweetSensationsPersonalUse, Sweet Sensations Personal Use;}.e9112c4a-366b-4ec7-99ee-d79dd064114a{fill:#f4d242;}.a7898ab1-ca2e-4108-8fc9-eca61d9e365f{fill:#59595b;}.b472bdab-cf01-4a2d-8926-e02f3a9a4031{fill:#808183;}.bdb371b2-3324-49ec-9ebe-f3872e3829ba{fill:#fff;}</style></defs><title>ffElement 7</title><g id="ae83f978-d943-4d49-9668-c7a9449b1682" data-name="Ebene 2"><g id="b6baa85d-ccb8-4cf4-97c7-067f6b6db73e" data-name="Ebene 1"><path class="a1ee0ad0-ca44-42d2-915b-a236866352f2" d="M130.12,204.94H101.28c-7.47-7-14.38-14.39-14.38-14.39-6.08,7.61-8.23,10.65-11,14.39H47.82c3.64-12.26,8.46-28.22,11-36.66l.39-1.31,1.37-4.52a101.43,101.43,0,0,0,48,4.52,64.09,64.09,0,0,0,9.19-2c.08.6.18,1.27.32,2,.35,1.79.88,3.94,1.55,6.35C122.24,182.73,126.9,195.84,130.12,204.94Z"/><path class="f19e6882-60e5-4a3d-b34a-a90c1bacfe52" d="M92.28,96.55h0A7.53,7.53,0,0,1,84.75,89V63.5H99.81V89A7.53,7.53,0,0,1,92.28,96.55Z"/><path class="f19e6882-60e5-4a3d-b34a-a90c1bacfe52" d="M85.26,76.73h0a14,14,0,0,1-12.88-15L74,40.44l27.86,2.09-1.6,21.32A14,14,0,0,1,85.26,76.73Z"/><circle class="f19e6882-60e5-4a3d-b34a-a90c1bacfe52" cx="73.55" cy="54.33" r="3.71"/><path class="e93afa80-0bdf-458c-89f9-5776a2fbf663" d="M111.87,42.89A13.6,13.6,0,0,0,99.32,28.31L60.9,25.42A11.91,11.91,0,0,0,71.54,40.26l27,2L96.75,66.64a16.78,16.78,0,0,0-9.37,8s-2.6-9.94-14.76-9.06A20,20,0,0,0,70.05,73a8.07,8.07,0,0,0,12.56,7.7l.2-.14s15.84,2.58,16.9-10.66h.07l.3-4a20,20,0,0,0,11.3-16.55l.43-5.67c0-.14,0-.27,0-.41h0Z"/><path class="f19e6882-60e5-4a3d-b34a-a90c1bacfe52" d="M25.69,99.9a65,65,0,0,1,2.81-6.73,6.87,6.87,0,0,0,4.6-3.75,23,23,0,0,0,2-6.21c.24-1.1.48-2.19.71-3.28A8.87,8.87,0,0,0,36,75.45,2,2,0,0,0,34.67,74a2.08,2.08,0,0,0-1.91.85c-1.93,2.22-1.56,5.84-3.57,8a7.67,7.67,0,0,1-4.35,2,29.14,29.14,0,0,0-4.77.92l-.05,0a5.24,5.24,0,0,0-3.36,4.89,15.35,15.35,0,0,0,2,8.42,2,2,0,0,0,1.84.93,26.12,26.12,0,0,0,3.65,0C24.74,99.88,25.49,100.47,25.69,99.9Z"/><path class="f19e6882-60e5-4a3d-b34a-a90c1bacfe52" d="M16.27,75.24c1.33-1,3.33-1,4.88-1.14A12.82,12.82,0,0,1,28,75.56c1.8,1,3.49,2.61,3.56,4.66a8,8,0,0,1-.42,2.36l-.48,1.64a11.82,11.82,0,0,1-1.08,2.83A7.17,7.17,0,0,1,25,90.2a11.24,11.24,0,0,1-5.66-.37,7.92,7.92,0,0,1-4-2.39c-2-2.45-1.37-6.08-.74-8.9a7.44,7.44,0,0,1,.82-2.36A3.27,3.27,0,0,1,16.27,75.24Z"/><path class="ae0db855-dfa5-431f-bc3c-16fc94eacd36" d="M99.81,89H84.75s-6.58,3.82-13.53,16.13c-9,4.35-21.53,9.89-32.11,12.9a9.31,9.31,0,0,1-11.87-8.34,80.63,80.63,0,0,1,0-9.12,5.14,5.14,0,0,0-7.1-5l-.18.08a5.14,5.14,0,0,0-2.84,3.74A84.5,84.5,0,0,0,16,109.1a25.08,25.08,0,0,0,25.23,26.4,126,126,0,0,0,19.25-1.6c-.36,1.48-.7,3-1,4.56a200.84,200.84,0,0,0-3.55,26.31s17.93,28.52,66.11,7.54C122,172.31,116.78,107.2,99.81,89Z"/><path class="aedf9ea4-c5ec-4632-b311-b12436d4b8b8" d="M87.12,127.1s-10.05,9.27-27.67,11.36c.35-1.67.71-3.28,1.08-4.84h0S77.5,130.59,87.12,127.1Z"/><text class="a2e937b6-93d2-4baf-b50d-a48086f73733" transform="translate(73.97 152.2)">Etienne Roulet</text><path class="e9112c4a-366b-4ec7-99ee-d79dd064114a" d="M42.37,27.23A16.76,16.76,0,1,0,13.75,39.07a19.09,19.09,0,0,1,4.92,8.45l1.35,5H31l1.28-4.74a19,19,0,0,1,5.07-8.6A16.71,16.71,0,0,0,42.37,27.23Z"/><path class="a7898ab1-ca2e-4108-8fc9-eca61d9e365f" d="M28.15,58.37H22.79a2.85,2.85,0,0,1-2.9-2.54l-.45-5.49,12.13-.08-.52,5.57A2.84,2.84,0,0,1,28.15,58.37Z"/><path class="b472bdab-cf01-4a2d-8926-e02f3a9a4031" d="M30.48,52.65c-3.39.15-6.79,0-10.18.13a.23.23,0,0,0,0,.46c3.39.11,6.79-.1,10.18,0C30.88,53.26,30.86,52.64,30.48,52.65Z"/><path class="b472bdab-cf01-4a2d-8926-e02f3a9a4031" d="M30.48,54.13c-3.39.14-6.79,0-10.18.12a.23.23,0,0,0,0,.46c3.39.11,6.79-.1,10.18,0C30.88,54.73,30.86,54.11,30.48,54.13Z"/><path class="e9112c4a-366b-4ec7-99ee-d79dd064114a" d="M27,2c0,1.08-.58,5-1.28,5S24.41,3,24.41,2,25,0,25.7,0,27,.88,27,2Z"/><path class="e9112c4a-366b-4ec7-99ee-d79dd064114a" d="M43,7.92c-.82.7-3.39,3.67-2.93,4.2s3.78-1.55,4.6-2.26,1.11-1.71.65-2.24S43.78,7.21,43,7.92Z"/><path class="e9112c4a-366b-4ec7-99ee-d79dd064114a" d="M49.19,25.24c-1.08.14-5,.06-5.09-.64s3.69-1.77,4.76-1.9,2,.32,2.1,1S50.26,25.11,49.19,25.24Z"/><path class="e9112c4a-366b-4ec7-99ee-d79dd064114a" d="M9.9,6.63c.85.66,3.55,3.51,3.12,4.07s-3.85-1.39-4.7-2S7.13,7,7.57,6.43,9.05,6,9.9,6.63Z"/><path class="e9112c4a-366b-4ec7-99ee-d79dd064114a" d="M1.78,22.47c1.08.13,5,.05,5.09-.65s-3.69-1.76-4.76-1.9-2,.33-2.1,1S.71,22.33,1.78,22.47Z"/><path class="bdb371b2-3324-49ec-9ebe-f3872e3829ba" d="M32.84,35.77a4.52,4.52,0,0,1-1.26-1.49,5.25,5.25,0,0,0,1-2.7,16.56,16.56,0,0,0,.1-1.73,1.51,1.51,0,0,0-.54-1.37c-.42-.31-1,0-1.3.27a3.18,3.18,0,0,0-.7,1.38,6.22,6.22,0,0,0-.1,2.94,6,6,0,0,0,.28,1,2.66,2.66,0,0,1-.8.42,1.67,1.67,0,0,1-2-1c-.07-.13-.13-.27-.2-.41l.21-.57A12.24,12.24,0,0,0,28,29.62c.06-.8.09-1.77-.69-2.25a.53.53,0,0,0-.69.18A6,6,0,0,0,26.21,33a11.1,11.1,0,0,1-.69,1.38c-.29.49-.83,1.25-1.49,1.15s-1.1-.86-1.41-1.33a5.94,5.94,0,0,1-.53-1.11q.12-.31.21-.63a11,11,0,0,0,.48-2.54c.06-.72.08-1.73-.71-2.07a.5.5,0,0,0-.68.18A7.17,7.17,0,0,0,21,32.88a1,1,0,0,0,.05.16A10.68,10.68,0,0,1,19,36.33c-.4.43.23,1.07.64.65a11.67,11.67,0,0,0,1.95-2.7,8.39,8.39,0,0,0,.5.81,2.9,2.9,0,0,0,2.09,1.43,2.63,2.63,0,0,0,2-1.31,6.78,6.78,0,0,0,.59-1,2.66,2.66,0,0,0,1.86,1.32A3,3,0,0,0,30.76,35a6.33,6.33,0,0,0,1.4,1.65A.56.56,0,1,0,32.84,35.77Zm-5.77-7A5.39,5.39,0,0,1,27,29.92a10.1,10.1,0,0,1-.22,1.32A4.69,4.69,0,0,1,27.07,28.78ZM31,31.3a4.7,4.7,0,0,1,.28-1.22,2.3,2.3,0,0,1,.24-.5l.08-.1a.33.33,0,0,1,0,.12,8.65,8.65,0,0,1-.35,3.08,2.13,2.13,0,0,1-.14.35A5.58,5.58,0,0,1,31,31.3Z"/><path class="bdb371b2-3324-49ec-9ebe-f3872e3829ba" d="M33.8,33.3q-2.67,8.16-5.67,16.21a.53.53,0,0,0,1,.39q3-8,5.55-16.26C34.83,33.08,34,32.73,33.8,33.3Z"/><path class="bdb371b2-3324-49ec-9ebe-f3872e3829ba" d="M17.59,33C19,38.5,20.34,44.07,21.52,49.67a.53.53,0,0,0,1.05-.2C21.37,43.87,20,38.3,18.5,32.78,18.34,32.21,17.44,32.38,17.59,33Z"/></g></g></svg>