<svg xmlns="http://www.w3.org/2000/svg" viewBox="0 0 592 167.42"><defs><style>.cls-1{font-size:120.67px;font-family:SweetSensationsPersonalUse, Sweet Sensations Personal Use;}.cls-1,.cls-2{fill:#fff;}.cls-3{fill:#fff564;}</style></defs><title>Element 1</title><g id="Ebene_2" data-name="Ebene 2"><g id="Ebene_1-2" data-name="Ebene 1"><text class="cls-1" transform="translate(80.63 105.11)">Etienne Roulet</text><path class="cls-2" d="M115.69,167.42H88.79c-7-6.52-13.4-13.42-13.4-13.42-5.67,7.1-7.68,9.93-10.28,13.42H38.94c3.4-11.43,7.89-26.32,10.27-34.19.12-.44.25-.84.36-1.22l1.28-4.21A93.67,93.67,0,0,0,68.09,132a93.29,93.29,0,0,0,27.48,0,59.63,59.63,0,0,0,8.57-1.86c.07.56.17,1.18.3,1.86.32,1.67.82,3.68,1.44,5.92C108.34,146.7,112.69,158.93,115.69,167.42Z"/><path class="cls-2" d="M80.4,66.33h0a7,7,0,0,1-7-7V35.52h14v23.8A7,7,0,0,1,80.4,66.33Z"/><path class="cls-2" d="M73.86,47.85h0a13,13,0,0,1-12-14L63.34,14l26,2L87.82,35.83A13,13,0,0,1,73.86,47.85Z"/><circle class="cls-2" cx="62.94" cy="26.96" r="3.46"/><path class="cls-3" d="M98.67,16.29A12.69,12.69,0,0,0,87,2.69L51.14,0a11.1,11.1,0,0,0,9.92,13.83l25.22,1.89L84.57,38.44a15.59,15.59,0,0,0-8.74,7.43s-2.42-9.27-13.77-8.44a18.59,18.59,0,0,0-2.39,7,7.52,7.52,0,0,0,11.71,7.19l.19-.13s14.77,2.4,15.76-9.94h.07l.28-3.74A18.67,18.67,0,0,0,98.22,22.33l.4-5.29c0-.13,0-.25,0-.38h0Z"/><path class="cls-2" d="M75.59,94.82s-9.37,8.65-25.8,10.6c.32-1.56.66-3.06,1-4.51h0S66.62,98.08,75.59,94.82Z"/><path class="cls-2" d="M12,79.62q1.26-3.87,2.88-7.58a7.34,7.34,0,0,0,4.63-4.26,29,29,0,0,0,2-7l.75-3.69a11.21,11.21,0,0,0,.25-5,2.12,2.12,0,0,0-1.26-1.63,2,2,0,0,0-1.91,1c-2,2.52-1.64,6.57-3.67,9a7.45,7.45,0,0,1-4.35,2.29,26,26,0,0,0-4.75,1.1l0,0a6.08,6.08,0,0,0-3.41,5.52A18.73,18.73,0,0,0,5,78.79a1.84,1.84,0,0,0,1.82,1c1.14-.09,2.42.25,3.63,0C11,79.62,11.77,80.27,12,79.62Z"/><path class="cls-2" d="M3,52.12C4.31,51,6.31,50.9,7.84,50.77a11.4,11.4,0,0,1,6.77,1.54,6.46,6.46,0,0,1,3.47,5.17,9.7,9.7,0,0,1-.45,2.66L17.14,62A14.75,14.75,0,0,1,16,65.17a7.41,7.41,0,0,1-4.62,3.6,9.92,9.92,0,0,1-5.62-.32,7.55,7.55,0,0,1-3.92-2.63C-.08,63.1.58,59,1.25,55.84a9.5,9.5,0,0,1,.85-2.66A3.65,3.65,0,0,1,3,52.12Z"/><path class="cls-2" d="M29.57,21.68a11.69,11.69,0,1,0-20,8.26A13.27,13.27,0,0,1,13,35.84L14,39.33h7.67l.89-3.3a13.3,13.3,0,0,1,3.54-6A11.66,11.66,0,0,0,29.57,21.68Z"/><path class="cls-2" d="M19.64,43.41H15.91a2,2,0,0,1-2-1.77l-.32-3.83L22,37.75l-.36,3.88A2,2,0,0,1,19.64,43.41Z"/><path class="cls-2" d="M21.27,39.42c-2.36.1-4.74,0-7.1.08a.16.16,0,0,0,0,.32c2.37.08,4.74-.07,7.1,0C21.55,39.85,21.54,39.41,21.27,39.42Z"/><path class="cls-2" d="M21.27,40.45c-2.36.1-4.74,0-7.1.08a.16.16,0,0,0,0,.32c2.37.08,4.74-.07,7.1,0C21.55,40.87,21.54,40.44,21.27,40.45Z"/><path class="cls-2" d="M18.83,4c0,.75-.4,3.46-.89,3.46S17,4.8,17,4s.4-1.36.89-1.36S18.83,3.29,18.83,4Z"/><path class="cls-2" d="M30,8.2c-.57.49-2.37,2.56-2,2.94s2.64-1.09,3.21-1.58.77-1.19.45-1.57S30.55,7.71,30,8.2Z"/><path class="cls-2" d="M34.32,20.29c-.75.09-3.49,0-3.55-.45s2.57-1.23,3.32-1.32,1.4.23,1.47.72S35.07,20.2,34.32,20.29Z"/><path class="cls-2" d="M6.91,7.3c.59.46,2.48,2.45,2.17,2.84S6.4,9.18,5.8,8.71,5,7.56,5.28,7.17,6.32,6.84,6.91,7.3Z"/><path class="cls-2" d="M1.25,18.36c.75.09,3.49,0,3.55-.45s-2.57-1.23-3.32-1.32-1.4.23-1.47.72S.5,18.26,1.25,18.36Z"/><path class="cls-2" d="M22.92,27.64a3,3,0,0,1-.88-1,3.69,3.69,0,0,0,.69-1.88,11.79,11.79,0,0,0,.07-1.2,1,1,0,0,0-.37-1c-.29-.22-.68,0-.91.19a2.17,2.17,0,0,0-.49,1A4.33,4.33,0,0,0,21,25.76a4.08,4.08,0,0,0,.2.69,1.8,1.8,0,0,1-.56.3A1.17,1.17,0,0,1,19.17,26c0-.09-.09-.18-.14-.28l.14-.4a8.4,8.4,0,0,0,.39-2c0-.56.06-1.24-.48-1.57a.36.36,0,0,0-.48.13,4.17,4.17,0,0,0-.32,3.8,8.27,8.27,0,0,1-.48,1c-.2.34-.58.87-1,.8s-.77-.6-1-.93a3.8,3.8,0,0,1-.37-.77q.08-.21.15-.43a8,8,0,0,0,.33-1.78c0-.5.06-1.21-.49-1.45a.36.36,0,0,0-.48.13,5,5,0,0,0-.27,3.38l0,.11A7.43,7.43,0,0,1,13.23,28c-.28.3.16.74.45.45A7.81,7.81,0,0,0,15,26.6a4.94,4.94,0,0,0,.35.57,2,2,0,0,0,1.45,1,1.84,1.84,0,0,0,1.42-.91,4.77,4.77,0,0,0,.42-.68,1.85,1.85,0,0,0,1.3.92,2.14,2.14,0,0,0,1.49-.38,4.44,4.44,0,0,0,1,1.15A.39.39,0,1,0,22.92,27.64Zm-4-4.88a4.39,4.39,0,0,1-.06.8,6.69,6.69,0,0,1-.15.92A3.21,3.21,0,0,1,18.89,22.76Zm2.73,1.76a3.33,3.33,0,0,1,.2-.85,1.75,1.75,0,0,1,.17-.35l.06-.07a.55.55,0,0,1,0,.08,6.05,6.05,0,0,1-.24,2.15,2.12,2.12,0,0,1-.1.24A4,4,0,0,1,21.62,24.52Z"/><path class="cls-2" d="M23.58,25.92c-1.24,3.8-2.55,7.57-4,11.31a.37.37,0,0,0,.69.27c1.4-3.74,2.7-7.52,3.87-11.34C24.3,25.76,23.71,25.52,23.58,25.92Z"/><path class="cls-2" d="M12.28,25.68c1,3.87,1.92,7.76,2.74,11.66a.37.37,0,0,0,.73-.14c-.83-3.91-1.77-7.79-2.84-11.65C12.8,25.16,12.17,25.27,12.28,25.68Z"/></g></g></svg>